<?xml version="1.0" encoding="utf-8"?>
<!-- Generator: Adobe Illustrator 24.1.2, SVG Export Plug-In . SVG Version: 6.00 Build 0)  -->
<svg version="1.1" id="Layer_1" xmlns="http://www.w3.org/2000/svg" xmlns:xlink="http://www.w3.org/1999/xlink" x="0px" y="0px"
	 viewBox="0 0 512 512" style="enable-background:new 0 0 512 512;" xml:space="preserve">
<style type="text/css">
	.st0{fill:#3C1486;}
	.st1{fill:#FFFFFF;}
</style>
<circle class="st0" cx="256" cy="256.8" r="245"/>
<g id="icomoon-ignore">
</g>
<path class="st1" d="M364.3,224.4l-94.9-94.9c-7.4-7.4-19.4-7.4-26.9,0l-94.9,94.9c-7.4,7.4-7.4,19.4,0,26.9
	c7.4,7.4,19.4,7.4,26.9,0l62.5-62.5v181.8c0,10.5,8.5,19,19,19c10.5,0,19-8.5,19-19V188.8l62.5,62.5c3.7,3.7,8.5,5.6,13.4,5.6
	s9.7-1.8,13.4-5.6C371.7,243.8,371.7,231.8,364.3,224.4L364.3,224.4z"/>
</svg>
